<?xml version="1.0" encoding="UTF-8" standalone="no"?>
<!-- Created with Inkscape (http://www.inkscape.org/) -->

<svg
   xmlns:dc="http://purl.org/dc/elements/1.1/"
   xmlns:cc="http://creativecommons.org/ns#"
   xmlns:rdf="http://www.w3.org/1999/02/22-rdf-syntax-ns#"
   xmlns:svg="http://www.w3.org/2000/svg"
   xmlns="http://www.w3.org/2000/svg"
   xmlns:sodipodi="http://sodipodi.sourceforge.net/DTD/sodipodi-0.dtd"
   xmlns:inkscape="http://www.inkscape.org/namespaces/inkscape"
   width="210mm"
   height="297mm"
   viewBox="0 0 210 297"
   version="1.1"
   id="svg4173"
   inkscape:version="0.92.3 (2405546, 2018-03-11)"
   sodipodi:docname="express.svg">
  <defs
     id="defs4167" />
  <sodipodi:namedview
     id="base"
     pagecolor="#ffffff"
     bordercolor="#666666"
     borderopacity="1.0"
     inkscape:pageopacity="0.0"
     inkscape:pageshadow="2"
     inkscape:zoom="0.98994949"
     inkscape:cx="366.33488"
     inkscape:cy="697.16363"
     inkscape:document-units="mm"
     inkscape:current-layer="layer1"
     showgrid="false"
     inkscape:window-width="1055"
     inkscape:window-height="774"
     inkscape:window-x="3638"
     inkscape:window-y="264"
     inkscape:window-maximized="0" />
  <metadata
     id="metadata4170">
    <rdf:RDF>
      <cc:Work
         rdf:about="">
        <dc:format>image/svg+xml</dc:format>
        <dc:type
           rdf:resource="http://purl.org/dc/dcmitype/StillImage" />
        <dc:title></dc:title>
      </cc:Work>
    </rdf:RDF>
  </metadata>
  <g
     inkscape:label="Layer 1"
     inkscape:groupmode="layer"
     id="layer1">
    <path
       style="display:inline;fill:none;stroke:#000000;stroke-width:0.12425826px;stroke-linecap:butt;stroke-linejoin:miter;stroke-opacity:1"
       d="m 16.69637,104.63869 h 22.943888 l -0.113027,-4.973074 -1.35629,-3.50375 -3.729791,-4.181878 -5.844597,-1.400305 -5.683863,1.513328 -4.06886,4.294915 -1.92141,4.973064 z"
       id="path4097"
       inkscape:connector-curvature="0"
       sodipodi:nodetypes="cccccccccc" />
    <path
       style="display:inline;fill:none;stroke:#000000;stroke-width:0.12425826px;stroke-linecap:butt;stroke-linejoin:miter;stroke-opacity:1"
       d="m 16.69637,104.63869 -0.11302,3.50375 1.58233,4.97306 3.95584,3.72979 5.732803,1.00247 5.77801,-1.36348 4.877681,-3.36878 0.791171,-3.2777 0.113023,-1.92141"
       id="path4099"
       inkscape:connector-curvature="0"
       sodipodi:nodetypes="ccccccccc" />
    <path
       style="display:inline;fill:none;stroke:#000000;stroke-width:0.12164374px;stroke-linecap:butt;stroke-linejoin:miter;stroke-opacity:1"
       d="M 43.483077,118.09326 60.54971,90.797158"
       id="path4101"
       inkscape:connector-curvature="0" />
    <path
       style="display:inline;fill:none;stroke:#000000;stroke-width:0.12164374px;stroke-linecap:butt;stroke-linejoin:miter;stroke-opacity:1"
       d="M 43.370054,91.230423 59.984591,118.20157"
       id="path4103"
       inkscape:connector-curvature="0"
       sodipodi:nodetypes="cc" />
    <path
       style="display:inline;fill:none;stroke:#000000;stroke-width:0.11525864px;stroke-linecap:butt;stroke-linejoin:miter;stroke-opacity:1"
       d="m 66.539989,91.761564 0.339074,27.909316"
       id="path4105"
       inkscape:connector-curvature="0" />
    <path
       style="display:inline;fill:none;stroke:#000000;stroke-width:0.11179007px;stroke-linecap:butt;stroke-linejoin:miter;stroke-opacity:1"
       d="m 66.622415,94.594986 2.213895,-1.89203 5.314405,-1.675125 3.787514,0.700657 2.729773,0.995858 2.373506,2.7444 0.728544,2.54572 0.124261,4.626354 -0.739782,4.07999 -2.21359,1.69811 -3.375487,1.60988 -5.261237,-0.10618 -3.36152,-2.03475 -2.365907,-3.19014 z"
       id="path4107"
       inkscape:connector-curvature="0"
       sodipodi:nodetypes="ccccccccccccccc" />
    <path
       style="display:inline;fill:none;stroke:#000000;stroke-width:0.12927397px;stroke-linecap:butt;stroke-linejoin:miter;stroke-opacity:1"
       d="M 91.883707,91.823646 91.470445,119.16515"
       id="path4109"
       inkscape:connector-curvature="0" />
    <path
       style="display:inline;fill:none;stroke:#000000;stroke-width:0.13495265px;stroke-linecap:butt;stroke-linejoin:miter;stroke-opacity:1"
       d="m 91.755881,95.187336 2.915318,-2.895734 3.523808,-0.927032 3.785343,0.803334 2.19274,2.350132"
       id="path4111"
       inkscape:connector-curvature="0"
       sodipodi:nodetypes="ccccc" />
    <path
       style="display:inline;fill:none;stroke:#000000;stroke-width:0.12425826px;stroke-linecap:butt;stroke-linejoin:miter;stroke-opacity:1"
       d="m 159.23057,96.722176 -1.35278,-3.69877 -5.4395,-3.077865 -1.92141,-0.226051 -2.59956,1.356295 -2.82559,2.260481 -2.82561,4.29491 -0.20594,3.773994 2.24037,1.87721 7.23173,0.84353 5.31395,1.75603 2.03442,1.13024 0.34788,3.31889 0.33028,3.23651 -1.46932,2.14745 -4.19371,1.82022 -5.37417,0.2029 -3.43675,-2.97519 -2.47966,-2.32562"
       id="path4115"
       inkscape:connector-curvature="0" />
    <path
       style="display:inline;fill:none;stroke:#000000;stroke-width:0.12425826px;stroke-linecap:butt;stroke-linejoin:miter;stroke-opacity:1"
       d="m 111.82087,105.5786 h 22.94388 l -0.11301,-4.97308 -1.3563,-3.503737 -3.72979,-4.181889 -5.8446,-1.400306 -5.68386,1.513329 -4.06886,4.294916 -1.92141,4.973067 z"
       id="path4097-9"
       inkscape:connector-curvature="0"
       sodipodi:nodetypes="cccccccccc" />
    <path
       style="display:inline;fill:none;stroke:#000000;stroke-width:0.12425826px;stroke-linecap:butt;stroke-linejoin:miter;stroke-opacity:1"
       d="m 111.82087,105.5786 -0.11302,3.50375 1.58233,4.97306 3.95584,3.72979 5.73281,1.00247 5.77801,-1.36348 4.87767,-3.36878 0.79118,-3.2777 0.11302,-1.92142"
       id="path4099-1"
       inkscape:connector-curvature="0"
       sodipodi:nodetypes="ccccccccc" />
    <path
       style="display:inline;fill:none;stroke:#000000;stroke-width:0.12425826px;stroke-linecap:butt;stroke-linejoin:miter;stroke-opacity:1"
       d="m 183.80306,96.615296 -1.35277,-3.69878 -5.43951,-3.07786 -1.9214,-0.226051 -2.59956,1.356291 -2.8256,2.26048 -2.8256,4.29491 -0.20595,3.773994 2.24038,1.87722 7.23173,0.84352 5.31394,1.75603 2.03443,1.13024 0.34788,3.3189 0.33027,3.2365 -1.46931,2.14746 -4.19372,1.82022 -5.37417,0.20289 -3.43675,-2.97519 -2.47966,-2.32562"
       id="path4115-2"
       inkscape:connector-curvature="0" />
  </g>
</svg>
