<?xml version="1.0" encoding="UTF-8" standalone="no"?>
<!-- Created with Inkscape (http://www.inkscape.org/) -->

<svg
   xmlns:dc="http://purl.org/dc/elements/1.1/"
   xmlns:cc="http://creativecommons.org/ns#"
   xmlns:rdf="http://www.w3.org/1999/02/22-rdf-syntax-ns#"
   xmlns:svg="http://www.w3.org/2000/svg"
   xmlns="http://www.w3.org/2000/svg"
   xmlns:sodipodi="http://sodipodi.sourceforge.net/DTD/sodipodi-0.dtd"
   xmlns:inkscape="http://www.inkscape.org/namespaces/inkscape"
   width="210mm"
   height="297mm"
   viewBox="0 0 210 297"
   version="1.1"
   id="svg8"
   inkscape:version="0.92.3 (2405546, 2018-03-11)"
   sodipodi:docname="git.svg">
  <defs
     id="defs2" />
  <sodipodi:namedview
     id="base"
     pagecolor="#ffffff"
     bordercolor="#666666"
     borderopacity="1.0"
     inkscape:pageopacity="0.0"
     inkscape:pageshadow="2"
     inkscape:zoom="0.45254834"
     inkscape:cx="536.80158"
     inkscape:cy="456.96936"
     inkscape:document-units="mm"
     inkscape:current-layer="layer1"
     showgrid="false"
     inkscape:window-width="1333"
     inkscape:window-height="912"
     inkscape:window-x="3348"
     inkscape:window-y="346"
     inkscape:window-maximized="0" />
  <metadata
     id="metadata5">
    <rdf:RDF>
      <cc:Work
         rdf:about="">
        <dc:format>image/svg+xml</dc:format>
        <dc:type
           rdf:resource="http://purl.org/dc/dcmitype/StillImage" />
        <dc:title />
      </cc:Work>
    </rdf:RDF>
  </metadata>
  <g
     inkscape:label="Layer 1"
     inkscape:groupmode="layer"
     id="layer1">
    <path
       style="fill:#f24e26;fill-opacity:1;stroke:#000000;stroke-width:0.72345561px;stroke-linecap:butt;stroke-linejoin:miter;stroke-opacity:1"
       d="M 2.085871,135.12269 C 2.9760551,131.12262 5.4087561,127.50781 8.1228699,124.52871 21.979118,109.31965 60.042028,70.255669 60.198523,69.603958 L 91.425336,98.77103 c -3.826678,6.10898 1.720138,14.7565 10.350934,13.90922 l 0.19708,58.49652 c -3.320282,1.73925 -9.435646,11.08571 0.16337,19.26344 l 8.943,0.94338 c 4.18108,1.8424 14.6814,-11.23661 3.18161,-20.03901 l -0.52376,-52.87043 20.04852,19.73244 c 0.38812,7.04701 3.31202,13.71698 15.40211,11.65186 l 5.76674,-5.3542 c 2.50502,-11.79452 -6.31377,-15.84327 -13.60006,-14.81803 L 114.06424,101.69995 C 112.67757,96.403735 112.23599,88.469078 100.95956,88.566292 L 70.881475,59.349962 c 0,0 17.325788,-20.445945 27.775322,-28.493706 2.295653,-1.768011 4.700993,-3.879255 7.535063,-4.242841 3.3232,-0.426335 7.11394,0.419066 9.7313,2.593155 43.50131,36.133974 60.1893,58.795428 90.02123,90.8827 2.49405,2.6826 3.68533,6.80739 3.6379,10.5405 -0.049,3.85512 -1.3526,8.11639 -4.03204,10.77775 -31.90693,31.69155 -57.39042,70.11387 -87.76287,96.42308 -2.82961,2.45106 -7.03752,3.03371 -10.71135,2.79569 -3.69351,-0.2393 -7.515165,-1.70357 -10.350933,-4.17896 C 65.582869,209.26268 31.135042,180.76705 2.8822413,145.4494 0.75950918,142.79587 1.3371967,138.48689 2.085871,135.12269 Z"
       id="path10"
       inkscape:connector-curvature="0"
       sodipodi:nodetypes="ascccccccccccccccsassssssssa" />
  </g>
</svg>
