<?xml version="1.0" encoding="UTF-8" standalone="no"?>
<!-- Created with Inkscape (http://www.inkscape.org/) -->

<svg
   xmlns:dc="http://purl.org/dc/elements/1.1/"
   xmlns:cc="http://creativecommons.org/ns#"
   xmlns:rdf="http://www.w3.org/1999/02/22-rdf-syntax-ns#"
   xmlns:svg="http://www.w3.org/2000/svg"
   xmlns="http://www.w3.org/2000/svg"
   xmlns:sodipodi="http://sodipodi.sourceforge.net/DTD/sodipodi-0.dtd"
   xmlns:inkscape="http://www.inkscape.org/namespaces/inkscape"
   width="210mm"
   height="297mm"
   viewBox="0 0 210 297"
   version="1.1"
   id="svg146"
   inkscape:version="0.92.3 (2405546, 2018-03-11)"
   sodipodi:docname="sass.svg">
  <defs
     id="defs140" />
  <sodipodi:namedview
     id="base"
     pagecolor="#ffffff"
     bordercolor="#666666"
     borderopacity="1.0"
     inkscape:pageopacity="0.0"
     inkscape:pageshadow="2"
     inkscape:zoom="0.49497475"
     inkscape:cx="374.21254"
     inkscape:cy="436.18481"
     inkscape:document-units="mm"
     inkscape:current-layer="layer1"
     showgrid="false"
     inkscape:window-width="2560"
     inkscape:window-height="1376"
     inkscape:window-x="2560"
     inkscape:window-y="27"
     inkscape:window-maximized="1"
     inkscape:snap-global="true" />
  <metadata
     id="metadata143">
    <rdf:RDF>
      <cc:Work
         rdf:about="">
        <dc:format>image/svg+xml</dc:format>
        <dc:type
           rdf:resource="http://purl.org/dc/dcmitype/StillImage" />
        <dc:title></dc:title>
      </cc:Work>
    </rdf:RDF>
  </metadata>
  <g
     inkscape:label="Layer 1"
     inkscape:groupmode="layer"
     id="layer1">
    <path
       style="fill:none;stroke:#000000;stroke-width:0.26458332px;stroke-linecap:butt;stroke-linejoin:miter;stroke-opacity:1"
       d="m 23.845594,115.02824 15.883716,-13.95842 21.178289,-4.813251 15.01664,1.508564 10.01225,3.786007 3.19062,11.94005 -5.11592,15.01414 -16.36504,7.21987 -12.789748,-0.35009 -8.856374,-6.00892 10.077375,2.00043 14.219477,-2.98959 8.90106,-8.05422 -2.41689,-12.14842 -15.27969,-3.52353 -12.626881,3.1575 -16.359745,13.78575 -4.500872,10.96362 0.163656,9.42469 10.589143,3.36927 7.322722,12.0225 13.897627,-5.66575 5.73384,-5.87542 4.33192,-1.44398 3.47734,3.82871 8.20637,-0.42442 3.43379,6.44678 -0.61619,12.82921 -0.34563,4.18626 14.24248,-24.45991 6.257221,-12.99577 16.91977,-0.67575 -5.50141,3.65346 1.58111,13.24262 11.20507,9.17773 10.94849,-25.47188 15.39846,-1.32603 -4.21188,15.6243 2.99162,8.29559 5.4325,1.85144 23.60002,-4.8218 11.71331,10.64328 0.41199,13.12626 -10.19316,13.7627 4.69662,-15.27969 -5.15786,-9.14721 -21.1718,-2.27115 -0.16055,9.897 -3.63128,9.29558 -10.03771,3.24974 -8.25262,-6.61902 1.9253,-9.62649 5.07521,-5.73619 -4.47286,-4.98341 -3.34235,-7.40243 2.66435,-9.20001 -14.2258,16.13942 0.72832,4.96094 -4.03344,13.14542 -15.12352,5.10938 -2.30694,-8.33293 6.17478,-10.15526 -7.4977,-11.0114 -1.32409,-8.18259 -13.130751,28.07775 -2.38913,4.70522 -6.15157,4.38754 -4.83994,-5.35558 -2.20483,-10.143 -4.35449,6.86508 -8.24605,1.7124 -5.23104,-3.6377 0.41816,-12.37939 -0.2142,-1.75025 -10.355363,7.8052 0.614225,13.31185 -4.42124,6.971 -16.468656,3.5021 -8.262717,1.79784 -6.83073,-10.94802 2.682621,-5.90371 22.691164,-15.07159 -10.658046,-9.47597 -5.775897,-3.8506 -3.900413,-14.25981 2.259076,-9.33246 z"
       id="path23"
       inkscape:connector-curvature="0" />
    <path
       style="fill:none;stroke:#000000;stroke-width:0.26458332px;stroke-linecap:butt;stroke-linejoin:miter;stroke-opacity:1"
       d="m 65.438889,159.65045 2.63614,-8.73711 1.89393,-0.81547 2.50027,5.19111 -3.69337,14.19639 -3.12406,1.60758 0.21207,-5.2864 z"
       id="path44"
       inkscape:connector-curvature="0" />
    <path
       style="fill:none;stroke:#000000;stroke-width:0.26458332px;stroke-linecap:butt;stroke-linejoin:miter;stroke-opacity:1"
       d="m 120.30993,163.50105 -4.81326,9.6265 0.96265,3.36927 5.7759,-3.36927 3.36926,-4.33192 z"
       id="path46"
       inkscape:connector-curvature="0" />
    <path
       style="fill:none;stroke:#000000;stroke-width:0.26458332px;stroke-linecap:butt;stroke-linejoin:miter;stroke-opacity:1"
       d="m 153.2633,167.12262 -4.81327,9.6265 0.96266,3.36927 5.77588,-3.36927 3.36926,-4.33192 z"
       id="path46-3"
       inkscape:connector-curvature="0" />
    <path
       style="fill:none;stroke:#000000;stroke-width:0.26458332px;stroke-linecap:butt;stroke-linejoin:miter;stroke-opacity:1"
       d="m 26.115395,173.41523 14.29462,-8.5087 3.06313,3.06314 -2.72278,11.57183 -9.1894,4.76487 -9.87009,-0.6807 -1.02104,-5.44556 z"
       id="path63"
       inkscape:connector-curvature="0" />
  </g>
</svg>
